<svg xmlns="http://www.w3.org/2000/svg" viewBox="0 0 911.41 356.46"><defs><style>.cls-1{fill:#fff;}.cls-2{fill:#4adbb4;}.cls-3{fill:#49dbb4;}.cls-4{fill:#49dab4;}.cls-5{fill:#d0efe6;}.cls-6{fill:#ccf0e6;}</style></defs><title>keephelper_text_2</title><g id="Layer_2" data-name="Layer 2"><rect class="cls-1" y="186.99" width="911.41" height="169.46"/></g><g id="Layer_1" data-name="Layer 1"><path class="cls-2" d="M255.83,17h17.75V48.52c-3.35,0-6.68-.31-9.91.15-1.36.18-3.51,1.95-3.55,3-.28,8.58-.15,17.17-.1,25.76,0,.48.5,1,.76,1.45l9.69,0,1-.77h0L272.92,77l4.71-4.9,7.56-9.08c1-1.3,2-2.61,3-3.92l1.27-1.38,1.38-2.14c.27-.34.54-.69.8-1l0,0,.83-.85h0l1.4-1.18c-.1-1-.19-1.95-.29-2.93L284.32,49a4.7,4.7,0,0,0-.59-.59V16.63a2,2,0,0,1,.68-.33q36,.09,72.06.2a55.32,55.32,0,0,1,5.59.53q0,16.3.08,32.61L350,50.82h0l-1,.8h0l-.89,1-1.65,1.71-.93.94a.65.65,0,0,0-.19.55l-.79,1,0,0-.83.85h0l-1.36,1.2-1.82,1.83q-4.35,5.2-8.68,10.42L330,72.92q-4.35,5.2-8.68,10.42l-1.82,1.83-5.86,6.93c-.18.47-.36,1-.55,1.42.05.68.09,1.35.13,2h0l8,10.27,1.82,1.85,8.68,10.4,1.82,1.85,8.68,10.4,1.82,1.84,1.37,1.2h0l.82.85.05,0,.79,1,1.07,1.42.91.92,0,0,.94.82,11.46.51v34.27H284.74c-.19-6.76-.43-13.52-.56-20.27-.08-4.42,0-8.84,0-13.15l10.68-1.42-.85-1.68c-.25-.32-.51-.63-.77-.95h0l-.85-.93h0l-.83-.93h0c-.26-.35-.53-.7-.79-1.06L289,130.4l-10-12c-.61-.61-1.21-1.23-1.81-1.84l-6.94-7.6-1.67-.27c-7.17-2-8.65-1-8.65,6,0,4.78-.09,9.56,0,14.34.09,3.11.48,6.22.74,9.32v0l12.78,1.21V173.2c-23.46-.13-46.92-.35-70.38-.31-3.81,0-5-.93-4.91-4.86.3-8.29.22-16.61,0-24.91-.08-3.22.84-4.5,4.17-4.24a68.5,68.5,0,0,0,9.61,0c1.05-.06,2.05-.91,3.08-1.4a20.56,20.56,0,0,0,.7-3.73q.08-39.12,0-78.23a20.24,20.24,0,0,0-.7-3.73l-1.67-1.34L198,49.64q0-16.3.08-32.61c4.77-.18,9.54-.46,14.31-.41.78,0,1.64,1.47,2.27,2.39.27.39.07,1.13.06,1.71-.13,10.1.48,7.83,8.26,8.3,4.16.25,5.3-1.38,5.26-5.25-.09-8.07-1.29-7.28,7.51-7.27,3,0,6,.34,9.07.53V29c3,0,5.74.3,8.36-.15,1-.17,2.37-1.93,2.52-3.1A69.86,69.86,0,0,0,255.83,17Z" transform="translate(-54.15 -16.3)"/><path class="cls-3" d="M671.67,174.07H529.91V140c4.27,0,8.32-.16,12.35.05,3.37.17,4.73-1.09,4.72-4.5q-.09-40.44,0-80.9c0-2.81-1-4-3.81-3.86-4.34.15-8.68,0-13.3,0V17H670.79V72.68H631.36V51h-38.9c0,8.34-.11,16.59.17,24.82,0,.82,2.45,2.2,3.79,2.23,8.16.21,16.32.1,24.48.12,1.42,0,2.84.13,4.49.21v31.91H592.46c0,9.22-.12,18,.15,26.87,0,1,2.22,2.72,3.43,2.74,10.78.22,21.57.08,32.36.17,2.67,0,3.56-1,3.51-3.64-.11-7.27,0-14.54,0-22.17h39.8Z" transform="translate(-54.15 -16.3)"/><path class="cls-4" d="M380,50.86V16.91H519.55V72.67h-39V50.92H442.77c0,8.68-.09,17.21.18,25.73,0,.64,2.63,1.69,4.05,1.72,9,.16,18,.08,27.24.08v31.76h-31.5v5.32c0,7,0,14,0,21,0,2.2.33,3.58,3,3.55,10.35-.11,20.71,0,31.06-.06,3.41,0,4.83-1.64,4.69-5.23-.24-6.69-.07-13.39-.07-20.48h39.69v59.55H380V140c3.54,0,6.85,0,10.16,0,5.3-.05,6.05-.76,6.06-6q0-35.86,0-71.73c0-11.38,0-11.38-11.14-11.39Z" transform="translate(-54.15 -16.3)"/><path class="cls-3" d="M760.83,140v33.88H680.3V140c4.42,0,8.6-.05,12.79,0,2.22,0,3.57-.48,3.56-3.13q-.14-42.42-.16-84.84c0-.25-.23-.51-.54-1.16H680.3V16.63h4.91c35.28,0,70.56.14,105.84-.05,19.43-.11,30.4,11.33,32.2,29.88A246.18,246.18,0,0,1,824,82.18c-.48,9.67-2,19.51-9.32,27.1-4.45,4.62-9.86,7.75-16.15,8-16.85.61-33.72.81-50.59.86-4,0-5.11,1.48-5,5.08.16,3.79.1,7.58,0,11.37s1.46,5.65,5.43,5.5S756.52,140,760.83,140ZM744.08,50.84a19,19,0,0,0-1,4c-.09,9.16-.15,18.32,0,27.48,0,3.34,2.43,4.44,5.41,4.24,6.33-.44,12.65-1.12,19-1.46,4.82-.26,7.72-1.87,8-6.66a175.63,175.63,0,0,0-.29-22C775,53.11,772.4,51,769,50.9,760.76,50.71,752.49,50.84,744.08,50.84Z" transform="translate(-54.15 -16.3)"/><path class="cls-2" d="M105,353.09c0-9.11.06-17.7,0-26.29,0-2.42,1.19-3,3.26-2.94,3.33.06,6.67,0,10.33,0V248.43H105.31V218.75c4.1,0,8.13-.11,12.15.1.74,0,1.69,1.23,2.05,2.1a8.39,8.39,0,0,1,.11,3c0,5.6,2.3,7.33,7.83,5.64a3.82,3.82,0,0,0,1.83-2.8,72.62,72.62,0,0,0,.09-7.73h14.32c0,2.11.16,4.23,0,6.33-.41,4.5,2.47,4.34,5.6,4.41,3.35.08,5.86-.27,5.41-4.59-.2-2,0-4,0-6.47,4.56,0,8.61-.14,12.64.11.76,0,2,1.62,2.06,2.51.16,7.72.19,15.45,0,23.17,0,.91-1.8,2.38-2.91,2.53a64.27,64.27,0,0,1-8.63.13v25.36h47.66V248.25c-3.62,0-7.08.17-10.51-.1-1.06-.08-2.87-1.35-2.89-2.11-.2-8.86-.13-17.73-.13-26.95h64.46c0,8.68.08,17.23-.13,25.78,0,.8-1.76,2.11-2.8,2.22a80.89,80.89,0,0,1-8.86.11c-.12,1.82-.28,3.1-.28,4.37,0,22.6.07,45.2-.09,67.79,0,3.69,1.12,4.72,4.72,4.64,8.64-.18,7.39-.94,7.45,7.34.06,7.12,0,14.23,0,21.61-1.48.14-2.59.35-3.7.35-18.81,0-37.62-.07-56.42.09-3.47,0-4.59-1-4.47-4.45q.35-10.49,0-21c-.11-3.38,1.14-4.37,4.32-4.14,3,.23,6,.05,9.62.05,0-8.15.07-15.83-.11-23.51,0-.75-1.57-2.11-2.42-2.12-15-.13-30-.09-45.72-.09,0,8.22-.07,16.16.15,24.1,0,.59,2.15,1.54,3.34,1.6,8.49.46,8.5.4,8.5,9.08v20.16Z" transform="translate(-54.15 -16.3)"/><path class="cls-4" d="M830.47,307c0,5.92.07,11,0,16.11,0,2.42,1.2,3,3.27,2.91,3-.17,6.1-.28,9.15-.45,2.09-.11,3.26.53,3.24,2.94-.08,8.59,0,17.19,0,26.17h-69V325.93h13.4V249.39H777.29V220.11h91c19.6,0,28.19,6.8,30.93,26.25,2.42,17.24,2.6,34.52-5.23,50.86-.4.82,0,2.2.36,3.16,3.1,7.55,6.15,15.12,9.58,22.53a6.33,6.33,0,0,0,4.41,3c4.15.42,8.36.14,12.8.14v28.69h-68.5V326.32l9.37-.46c-2.57-6.11-5-11.93-7.53-17.68a2.79,2.79,0,0,0-2.16-1.09C845.2,307,838.1,307,830.47,307Zm0-57.5c0,8.82.24,17.38-.1,25.91-.16,3.75,1.42,4.6,4.52,4.52,5.37-.12,10.75-.14,16.11-.4s8.14-3.25,8.25-8.67c.1-4.35.1-8.71,0-13.06-.07-5.81-2.93-9.21-8.47-9.22C844.21,248.6,837.6,249.19,830.47,249.54Z" transform="translate(-54.15 -16.3)"/><path class="cls-3" d="M320.55,324.69h32.88V303h33v51h-120V325.45l13.43-.76v-76.2H266.39V219.65H386.31v47.58H352.79v-18.7h-32.6c0,7.21-.08,14.43.15,21.64,0,.69,2,1.85,3.08,1.88,6.41.18,12.82.07,19.24.1,1.42,0,2.84.12,4.53.2V299H320.55Z" transform="translate(-54.15 -16.3)"/><path class="cls-3" d="M696.44,248.6c0,7,.07,13.56,0,20.11,0,2.78,1.34,3.48,3.8,3.45,6.55-.07,13.12.13,19.67-.08,3.32-.11,4.7.72,4.57,4.35-.27,7.39-.08,14.79-.08,22.63H696.46c0,8.12-.11,15.8.14,23.47,0,.89,1.94,2.46,3,2.49,8.89.2,17.79.1,26.68.1,2.71,0,3.83-1.29,3.76-4-.13-5.1,0-10.21,0-15.31,0-2.16.71-3.17,3-3.16,10,.08,20.08,0,30.47,0V354H643.2v-28.6l13.82-.77v-6.9c0-21.87,0-43.73.13-65.6,0-2.95-1-3.93-3.77-3.84-3.32.11-6.63,0-10.2,0V219.7H762.75v47.6H729.86V248.6Z" transform="translate(-54.15 -16.3)"/><path class="cls-3" d="M564.47,306.1v18.63l14.68.65V354H510.43V325.14c3.67,0,7.12-.07,10.57,0,2.84.07,4.12-.84,4.11-4q-.18-34.33,0-68.67c0-3.41-1.38-4.31-4.46-4.14-3.31.18-6.64,0-10.2,0V219.6c1.35-.09,2.72-.27,4.1-.27q45.72,0,91.43,0c15.65,0,25.73,9.73,26.62,25.4.4,7.07,1.13,14.15,1,21.22a115.1,115.1,0,0,1-2,20.49c-2.25,11.12-9.42,18.17-21,18.71-13.64.63-27.31.66-41,.94C568.07,306.13,566.49,306.1,564.47,306.1Zm-.15-57.74c0,9,.26,17.3-.11,25.56-.19,4.33,1.76,5.35,5.35,5.16,5.78-.3,11.58-.42,17.32-1,3.39-.37,5.4-2.94,5.53-6.3.21-5.66.23-11.35-.07-17-.17-3.18-1.81-6.15-5.38-6.29C579.59,248.16,572.2,248.36,564.32,248.36Z" transform="translate(-54.15 -16.3)"/><path class="cls-3" d="M396.94,219.51h38.83v5.24q0,47.22,0,94.45c0,5.73.2,5.93,5.89,5.93,7.28,0,14.57.05,21.86,0,2,0,4-.37,6.3-.6V303h33V354H396.94Z" transform="translate(-54.15 -16.3)"/><path class="cls-5" d="M279.09,118.43l10,12Z" transform="translate(-54.15 -16.3)"/><path class="cls-5" d="M342.29,130.31l-8.68-10.4Z" transform="translate(-54.15 -16.3)"/><path class="cls-5" d="M331.79,118.06l-8.68-10.4Z" transform="translate(-54.15 -16.3)"/><path class="cls-5" d="M321.36,83.34q4.33-5.22,8.68-10.42Q325.69,78.13,321.36,83.34Z" transform="translate(-54.15 -16.3)"/><path class="cls-5" d="M331.86,71.09q4.33-5.22,8.68-10.42Q336.19,65.88,331.86,71.09Z" transform="translate(-54.15 -16.3)"/><path class="cls-5" d="M321.29,105.81l-8-10.27Z" transform="translate(-54.15 -16.3)"/><path class="cls-5" d="M270.34,109l6.94,7.6Z" transform="translate(-54.15 -16.3)"/><path class="cls-5" d="M313.68,92.1l5.86-6.93Z" transform="translate(-54.15 -16.3)"/><path class="cls-5" d="M198,49.64l15.52.8Z" transform="translate(-54.15 -16.3)"/><path class="cls-5" d="M350,50.82l12.12-1.18c-2.48.42-4.95,1-7.45,1.23A34.71,34.71,0,0,1,350,50.82Z" transform="translate(-54.15 -16.3)"/><path class="cls-5" d="M313.26,95.54c0-.67-.08-1.34-.13-2C313.17,94.2,313.22,94.87,313.26,95.54Z" transform="translate(-54.15 -16.3)"/><path class="cls-5" d="M345.48,133.35l-1.37-1.2Z" transform="translate(-54.15 -16.3)"/><path class="cls-5" d="M342.36,58.84l1.36-1.2Z" transform="translate(-54.15 -16.3)"/><path class="cls-5" d="M347.16,135.23l-.79-1Z" transform="translate(-54.15 -16.3)"/><path class="cls-5" d="M349.06,51.62l1-.8Z" transform="translate(-54.15 -16.3)"/><path class="cls-5" d="M293.23,135.69c.26.32.52.63.77.95C293.75,136.32,293.49,136,293.23,135.69Z" transform="translate(-54.15 -16.3)"/><path class="cls-5" d="M349.14,137.57l-.91-.92Z" transform="translate(-54.15 -16.3)"/><path class="cls-5" d="M350.06,138.37l-.94-.82Z" transform="translate(-54.15 -16.3)"/><path class="cls-5" d="M348.18,52.57l.89-1C348.77,51.94,348.47,52.25,348.18,52.57Z" transform="translate(-54.15 -16.3)"/><path class="cls-5" d="M290.8,132.8c.26.36.53.71.79,1.06C291.33,133.51,291.06,133.16,290.8,132.8Z" transform="translate(-54.15 -16.3)"/><path class="cls-5" d="M343.75,57.65l.83-.85C344.3,57.08,344,57.36,343.75,57.65Z" transform="translate(-54.15 -16.3)"/><path class="cls-5" d="M346.32,134.19l-.82-.85Z" transform="translate(-54.15 -16.3)"/><path class="cls-5" d="M291.59,133.85l.83.93Z" transform="translate(-54.15 -16.3)"/><path class="cls-5" d="M344.62,56.78l.79-1Z" transform="translate(-54.15 -16.3)"/><path class="cls-5" d="M345.6,55.22l.93-.94Z" transform="translate(-54.15 -16.3)"/><path class="cls-5" d="M292.4,134.77l.85.93Z" transform="translate(-54.15 -16.3)"/><path class="cls-5" d="M283.73,16.63v0Z" transform="translate(-54.15 -16.3)"/><path class="cls-6" d="M285.19,63.06l-7.56,9.08Z" transform="translate(-54.15 -16.3)"/><path class="cls-5" d="M284.32,49l9.31.65Z" transform="translate(-54.15 -16.3)"/><path class="cls-5" d="M293.92,52.54l-1.4,1.18Z" transform="translate(-54.15 -16.3)"/><path class="cls-6" d="M272.92,77l-1.41,1.17Q272.22,77.64,272.92,77Z" transform="translate(-54.15 -16.3)"/><path class="cls-5" d="M289.45,57.76l-1.27,1.38Z" transform="translate(-54.15 -16.3)"/><path class="cls-6" d="M271.48,78.2l-1,.77Z" transform="translate(-54.15 -16.3)"/><path class="cls-5" d="M291.63,54.58c-.26.35-.53.7-.8,1C291.1,55.28,291.37,54.93,291.63,54.58Z" transform="translate(-54.15 -16.3)"/><path class="cls-5" d="M292.5,53.71l-.83.85Z" transform="translate(-54.15 -16.3)"/></g></svg>